# xmcd CD database file generated by Grip 3.0.1
# 
# Track frame offsets:
#       150
#       15245
#       41055
#       60568
#       65255
#       82445
#       111180
#       126720
#       145088
#       156328
#       190820
# 
# Disc length: 3034 seconds
# 
# Revision: 4
# Processed by: cddbd v1.5.2PL0 Copyright (c) Steve Scherf et al.
# Submitted via: Grip 3.0.1
# 
DISCID=9d0bd80b
DTITLE=Arlo Guthrie and Pete Seeger / More Together Again In Concert (Disc 1)
DYEAR=1994
DGENRE=Folk
TTITLE0=Midnight Special
TTITLE1=Abiyoyo
TTITLE2=Where Have All The Flowers Gone
TTITLE3=Mooses Come Walking
TTITLE4=When The Ship Comes In
TTITLE5=Guantanamera
TTITLE6=The Ross Perot Guide To Answering Embarrassing Questions
TTITLE7=Sailing Down The Golden River
TTITLE8=If I Had A Hammer (The Hammer Song)
TTITLE9=When A Soldier Makes It Home
TTITLE10=Can't Help Falling In Love
EXTD=
EXTT0=
EXTT1=
EXTT2=
EXTT3=
EXTT4=
EXTT5=
EXTT6=
EXTT7=
EXTT8=
EXTT9=
EXTT10=
PLAYORDER=
.
